<svg width="416" height="377" viewBox="0 0 416 377" fill="none" xmlns="http://www.w3.org/2000/svg">
<path d="M289.538 30.7308C346.341 58.5117 396.53 99.747 410.534 157.43C425.422 218.758 410.059 285.941 362.451 331.073C316.584 374.555 246.381 380.869 180.74 375.271C118.426 369.957 55.333 350.099 21.1398 301.966C-11.8705 255.499 -0.398199 197.141 16.3232 143.827C33.1212 90.2695 56.8988 34.4417 112.231 11.5372C169.311 -12.091 234.275 3.70316 289.538 30.7308Z" fill="#80CBEC"/>
<path d="M289.538 30.7308C346.341 58.5117 396.53 99.747 410.534 157.43C425.422 218.758 410.059 285.941 362.451 331.073C316.584 374.555 246.381 380.869 180.74 375.271C118.426 369.957 55.333 350.099 21.1398 301.966C-11.8705 255.499 -0.398199 197.141 16.3232 143.827C33.1212 90.2695 56.8988 34.4417 112.231 11.5372C169.311 -12.091 234.275 3.70316 289.538 30.7308Z" fill="#80CBEC" fill-opacity="0.54"/>
</svg>